<svg version="1.2" xmlns="http://www.w3.org/2000/svg" viewBox="0 0 136 38" width="136" height="38"><style></style><path fill-rule="evenodd" d="m26 24.1c0 0.1-0.6 2.2-2.2 4.4-1.3 1.9-2.7 3.8-4.9 3.8-2.2 0.1-2.9-1.2-5.3-1.2-2.5 0-3.3 1.2-5.3 1.3-2.1 0.1-3.6-2-5-3.9-2.7-3.8-4.8-10.8-2-15.6 1.4-2.4 3.9-3.9 6.6-3.9 2.1 0 4 1.4 5.3 1.4 1.2 0 3.6-1.7 6.1-1.4 1.1 0.1 4 0.4 5.9 3.1-0.2 0.1-3.5 2-3.5 5.9 0.1 4.7 4.2 6.2 4.3 6.1zm-13.1-15.4c-0.2-1.8 0.7-3.7 1.7-4.8 1.1-1.3 3.1-2.3 4.7-2.4 0.2 1.9-0.5 3.7-1.6 5-1.1 1.3-3 2.3-4.8 2.2zm38 23.1h-2.8l-1.5-4.7h-5.4l-1.5 4.7h-2.7l5.3-16h3.3zm-4.8-6.7l-1.4-4.2-0.8-3-0.8 3-1.4 4.2zm18.5 0.8c0 2-0.5 3.5-1.6 4.7-1 1-2.2 1.5-3.7 1.5-1.6 0-2.7-0.5-3.4-1.6v6h-2.6v-12.5l-0.1-3.8h2.3l0.1 1.8c0.9-1.4 2.2-2.1 4-2.1 1.4 0 2.6 0.5 3.5 1.6 1.1 1.2 1.5 2.6 1.5 4.4zm-2.7 0.1c0-1.1-0.3-2.1-0.8-2.8-0.6-0.8-1.3-1.1-2.3-1.1-0.7 0-1.2 0.2-1.8 0.6-0.5 0.4-0.9 1-1 1.7-0.1 0.3-0.1 0.6-0.1 0.8v1.9c0 0.8 0.3 1.6 0.8 2.1q0.8 0.9 2.1 0.9c1 0 1.8-0.4 2.3-1.1 0.6-0.8 0.8-1.8 0.8-3zm16.4-0.1c0 2-0.5 3.5-1.6 4.7-1 1-2.2 1.5-3.7 1.5-1.6 0-2.7-0.5-3.4-1.6v6h-2.6v-12.5l-0.1-3.8h2.3l0.1 1.8c0.9-1.4 2.2-2.1 4-2.1 1.4 0 2.6 0.5 3.5 1.6 1.1 1.2 1.5 2.6 1.5 4.4zm-2.7 0.1c0-1.1-0.3-2.1-0.8-2.8-0.6-0.8-1.3-1.1-2.3-1.1-0.7 0-1.2 0.2-1.8 0.6-0.5 0.4-0.9 1-1 1.7-0.1 0.3-0.1 0.6-0.1 0.8v1.9c0 0.8 0.3 1.6 0.8 2.1q0.8 0.9 2.1 0.9c1 0 1.8-0.4 2.3-1.1 0.6-0.8 0.8-1.8 0.8-3zm18 1.3q0 2.1-1.5 3.3c-1.1 0.9-2.6 1.4-4.5 1.4-1.8 0-3.2-0.3-4.3-1l0.6-2.1c1.2 0.7 2.4 1 3.8 1 1 0 1.8-0.2 2.3-0.7 0.6-0.4 0.8-1 0.8-1.8 0-0.7-0.2-1.2-0.7-1.6-0.5-0.4-1.2-0.9-2.3-1.2-2.9-1-4.3-2.6-4.3-4.6 0-1.3 0.5-2.4 1.5-3.2 1-0.8 2.4-1.3 4-1.3 1.5 0 2.8 0.3 3.7 0.8l-0.7 2.1c-0.9-0.5-2-0.7-3.2-0.7-0.9 0-1.7 0.2-2.2 0.7-0.4 0.4-0.7 0.9-0.7 1.5 0 0.6 0.3 1.2 0.8 1.6q0.6 0.6 2.4 1.2c1.4 0.6 2.5 1.2 3.1 2 1.1 0.5 1.4 1.5 1.4 2.6zm5.9-5.2v5.6q0 2.1 1.5 2.1c0.5 0 0.9 0 1.2-0.1l0.1 2q-0.8 0.3-2.1 0.3c-1 0-1.9-0.3-2.5-0.9-0.6-0.6-0.9-1.7-0.9-3.1v-5.8h-1.7v-1.9h1.7v-2.1l2.6-0.8v2.9h2.9v1.8zm16.1 3.8c0 1.8-0.5 3.2-1.6 4.4-1.1 1.2-2.6 1.8-4.4 1.8-1.7 0-3.1-0.6-4.2-1.7-1-1.1-1.6-2.5-1.6-4.3 0-1.8 0.5-3.3 1.6-4.4 1.1-1.1 2.5-1.7 4.3-1.7 1.7 0 3.2 0.6 4.2 1.7 1.2 1.1 1.7 2.5 1.7 4.2zm-2.8 0.1c0-1.1-0.2-2-0.7-2.7-0.6-0.9-1.3-1.4-2.4-1.4-1.1 0-1.9 0.5-2.4 1.4-0.5 0.8-0.7 1.7-0.7 2.8 0 1.1 0.2 2 0.7 2.7 0.6 0.9 1.4 1.4 2.4 1.4 1 0 1.8-0.5 2.4-1.4 0.5-0.8 0.7-1.7 0.7-2.8zm11.4-3.5c-0.3 0-0.5-0.1-0.8-0.1-0.9 0-1.7 0.3-2.2 1-0.4 0.6-0.7 1.4-0.7 2.3v6.1h-2.6v-7.9l-0.1-3.6h2.3l0.1 2.2h0.1c0.3-0.8 0.7-1.4 1.3-1.8 0.6-0.4 1.2-0.6 1.9-0.6h0.7zm11.8 3c0 0.5 0 0.8-0.1 1.2h-7.9c0 1.1 0.4 2 1.2 2.6 0.7 0.5 1.5 0.8 2.6 0.8 1.2 0 2.2-0.2 3.2-0.5l0.4 1.8c-1.1 0.5-2.5 0.7-4 0.7-1.8 0-3.3-0.5-4.4-1.6-1.1-1.1-1.6-2.5-1.6-4.2 0-1.7 0.5-3.2 1.5-4.4 1-1.2 2.4-1.9 4.2-1.9 1.7 0 3 0.6 3.9 1.9 0.6 0.9 1 2.1 1 3.6zm-2.5-0.7c0-0.8-0.2-1.4-0.5-2-0.5-0.7-1.2-1.1-2.1-1.1-0.9 0-1.6 0.3-2.1 1-0.4 0.6-0.7 1.2-0.8 2zm-88.8-19.3c0 1.3-0.4 2.4-1.3 3-0.8 0.6-2 0.9-3.4 0.9-0.7 0-1.4 0-1.9-0.1v-7.3c0.7-0.1 1.4-0.2 2.2-0.2 1.4 0 2.5 0.3 3.2 0.9 0.7 0.6 1.2 1.6 1.2 2.8zm-1.4 0c0-0.9-0.3-1.5-0.8-2-0.5-0.5-1.2-0.7-2.2-0.7-0.4 0-0.8 0-1 0.1v5.6h0.9c1 0 1.8-0.3 2.3-0.8 0.5-0.5 0.8-1.2 0.8-2.2zm8.6 1.1c0 0.8-0.3 1.5-0.8 2q-0.8 0.9-2.1 0.9c-0.9 0-1.5-0.3-2-0.8-0.5-0.5-0.8-1.2-0.8-2 0-0.8 0.3-1.5 0.8-2.1 0.5-0.5 1.2-0.8 2.1-0.8 0.9 0 1.5 0.3 2.1 0.8 0.5 0.6 0.7 1.2 0.7 2zm-1.3 0.1c0-0.5-0.1-0.9-0.3-1.3q-0.5-0.6-1.2-0.6-0.8 0-1.2 0.6c-0.2 0.4-0.3 0.8-0.3 1.3 0 0.5 0.1 0.9 0.3 1.3q0.4 0.6 1.2 0.6c0.5 0 0.9-0.2 1.2-0.7 0.1-0.3 0.3-0.7 0.3-1.2zm11-2.7l-1.8 5.4h-1.2l-0.8-2.3-0.5-1.7c-0.1 0.6-0.3 1.2-0.5 1.7l-0.8 2.3h-1.2l-1.7-5.4h1.3l0.8 2.5c0.2 0.6 0.3 1.2 0.4 1.7 0.1-0.5 0.3-1 0.5-1.7l0.8-2.6h1.1l0.8 2.6c0.2 0.6 0.3 1.2 0.5 1.8 0.1-0.6 0.2-1.1 0.4-1.8l0.7-2.5zm6.8 5.4h-1.3v-3.1c0-1-0.4-1.4-1.2-1.4-0.4 0-0.7 0.1-0.9 0.4-0.2 0.3-0.4 0.6-0.4 0.9v3.2h-1.3v-5.4h1.1l0.1 0.8c0.2-0.3 0.4-0.5 0.7-0.7 0.4-0.2 0.7-0.3 1.2-0.3 0.5 0 1 0.2 1.4 0.5 0.4 0.4 0.7 1 0.7 1.8zm3.5 0h-1.3v-7.9h1.3zm7.7-2.8c0 0.8-0.3 1.5-0.8 2q-0.8 0.9-2.1 0.9c-0.9 0-1.5-0.3-2-0.8-0.5-0.5-0.8-1.2-0.8-2 0-0.8 0.3-1.5 0.8-2.1 0.5-0.5 1.2-0.8 2.1-0.8 0.9 0 1.5 0.3 2.1 0.8 0.4 0.6 0.7 1.2 0.7 2zm-1.4 0.1c0-0.5-0.1-0.9-0.3-1.3q-0.5-0.6-1.2-0.6-0.8 0-1.2 0.6c-0.2 0.4-0.3 0.8-0.3 1.3 0 0.5 0.1 0.9 0.3 1.3q0.4 0.6 1.2 0.6c0.5 0 0.9-0.2 1.2-0.7q0.3-0.5 0.3-1.2zm7.7 2.7h-1.2l-0.1-0.6c-0.4 0.5-1 0.7-1.7 0.7-0.6 0-1-0.2-1.3-0.5-0.3-0.3-0.5-0.7-0.5-1.1q0-1.1 0.9-1.5c0.6-0.3 1.4-0.5 2.5-0.5v-0.1c0-0.7-0.4-1.1-1.2-1.1-0.6 0-1.1 0.1-1.5 0.4l-0.3-0.8c0.5-0.3 1.2-0.5 2-0.5 1.5 0 2.3 0.7 2.3 2.2v2c0 0.6 0 1.1 0.1 1.4zm-1.4-1.9v-0.8c-1.4 0-2.1 0.3-2.1 1.1 0 0.3 0.1 0.5 0.2 0.6 0.2 0.1 0.4 0.2 0.6 0.2 0.3 0 0.6-0.1 0.8-0.2 0.2-0.2 0.4-0.4 0.4-0.6 0.1-0.1 0.1-0.2 0.1-0.3zm8.7 1.9h-1.2v-0.9c-0.4 0.7-1 1-1.9 1-0.7 0-1.3-0.3-1.8-0.8-0.5-0.5-0.7-1.2-0.7-2 0-0.9 0.3-1.6 0.8-2.1 0.5-0.5 1.1-0.8 1.8-0.8 0.8 0 1.3 0.2 1.6 0.7v-3h1.3v6.4c0.1 0.5 0.1 1 0.1 1.5zm-1.3-2.3v-1.3c-0.1-0.3-0.2-0.5-0.5-0.7q-0.3-0.3-0.9-0.3c-0.5 0-0.9 0.2-1.1 0.5-0.3 0.4-0.4 0.8-0.4 1.4 0 0.5 0.1 1 0.4 1.3 0.2 0.4 0.6 0.5 1.1 0.5 0.4 0 0.8-0.1 1-0.4 0.3-0.3 0.4-0.6 0.4-1zm12.4-0.5c0 0.8-0.3 1.5-0.8 2q-0.8 0.9-2.1 0.9c-0.9 0-1.5-0.3-2-0.8-0.5-0.5-0.8-1.2-0.8-2 0-0.8 0.3-1.5 0.8-2.1 0.5-0.5 1.2-0.8 2.1-0.8 0.9 0 1.5 0.3 2.1 0.8 0.5 0.6 0.7 1.2 0.7 2zm-1.3 0.1c0-0.5-0.1-0.9-0.3-1.3q-0.4-0.6-1.2-0.6-0.8 0-1.2 0.6c-0.2 0.4-0.3 0.8-0.3 1.3 0 0.5 0.1 0.9 0.3 1.3q0.4 0.6 1.2 0.6c0.5 0 0.9-0.2 1.2-0.7q0.3-0.5 0.3-1.2zm8.3 2.7h-1.3v-3.1c0-1-0.4-1.4-1.2-1.4-0.4 0-0.7 0.1-0.9 0.4-0.2 0.3-0.4 0.6-0.4 0.9v3.2h-1.3v-5.4h1.1l0.1 0.8c0.2-0.3 0.4-0.5 0.7-0.7 0.4-0.2 0.7-0.3 1.2-0.3 0.5 0 1 0.2 1.4 0.5 0.4 0.4 0.7 1 0.7 1.8zm8.7-4.5h-1.4v2.6c0 0.7 0.3 1 0.8 1 0.2 0 0.4 0 0.6-0.1v0.9c-0.3 0.1-0.6 0.1-1 0.1-0.5 0-0.9-0.1-1.2-0.4-0.3-0.3-0.4-0.8-0.4-1.5v-2.6h-0.9v-0.9h0.9v-1l1.3-0.4v1.3h1.4zm6.9 4.5h-1.3v-3.1q0-1.5-1.2-1.5c-0.6 0-1 0.3-1.2 0.8 0 0.1-0.1 0.3-0.1 0.4v3.2h-1.3v-7.7h1.3v3.3q0.6-0.9 1.8-0.9c0.5 0 1 0.2 1.3 0.5 0.4 0.4 0.7 1 0.7 1.8zm7.1-3v0.5h-3.9q0 0.7 0.6 1.2c0.3 0.3 0.8 0.4 1.3 0.4 0.6 0 1.1-0.1 1.6-0.3l0.2 0.8c-0.6 0.2-1.2 0.3-2 0.3-0.9 0-1.6-0.2-2.1-0.7-0.5-0.5-0.8-1.2-0.8-2 0-0.8 0.2-1.5 0.7-2 0.5-0.6 1.2-0.9 2-0.9 0.8 0 1.5 0.3 1.9 0.9 0.3 0.6 0.5 1.1 0.5 1.8zm-1.2-0.3q0-0.6-0.3-0.9c-0.2-0.3-0.6-0.5-1-0.5-0.4 0-0.8 0.2-1 0.5-0.2 0.3-0.3 0.6-0.4 0.9z"/></svg>