<svg version="1.2" xmlns="http://www.w3.org/2000/svg" viewBox="0 0 135 38" width="135" height="38"><style></style><path fill-rule="evenodd" d="m43.1 6.3h-3.4v1h2.6q0 0.9-0.6 1.5c-0.6 0.6-1.2 0.9-2 0.9-0.7 0-1.3-0.4-1.9-0.9-0.6-0.5-0.8-1.3-0.8-2.2 0-0.9 0.2-1.7 0.8-2.2 0.5-0.6 1.2-0.9 1.9-0.9 0.7 0 1.4 0.3 1.9 0.9l0.6-0.6c-0.3-0.4-0.6-0.6-1.1-0.9-0.5-0.3-0.9-0.4-1.4-0.4-1 0-2 0.4-2.6 1.2-0.7 0.7-1.1 1.6-1.1 2.8 0 1.2 0.4 2 1.1 2.8 0.6 0.8 1.6 1.2 2.6 1.2 1 0 1.9-0.4 2.6-1.1 0.6-0.7 0.8-1.6 0.8-2.6zm5.5-3.7h-4.1v7.8h4.1v-1h-3.2v-2.5h3v-0.9h-3v-2.5h3.2zm4 0.9h2v-0.9h-5v0.9h2v6.9h0.9zm6.2 6.8v-7.7h-0.9v7.8zm4.1-6.8h2v-0.9h-4.9v0.9h2v6.9h0.9zm12.4 3c0-1.1-0.4-2-1.1-2.8-0.6-0.8-1.6-1.2-2.6-1.2-1 0-2 0.4-2.6 1.2-0.7 0.7-1.1 1.7-1.1 2.8 0 1.1 0.4 2 1.1 2.8 0.7 0.8 1.6 1.2 2.6 1.2 1 0 1.9-0.4 2.6-1.2 0.7-0.7 1.1-1.7 1.1-2.8zm-6.4 0c0-0.9 0.3-1.7 0.8-2.2 0.5-0.6 1.2-0.9 1.9-0.9 0.7 0 1.4 0.4 1.9 0.9 0.6 0.5 0.8 1.3 0.8 2.2 0 0.9-0.3 1.7-0.8 2.2-0.5 0.6-1.2 0.9-1.9 0.9-0.7 0-1.4-0.4-1.9-0.9-0.6-0.5-0.9-1.3-0.8-2.2zm8.5 3.8v-6.3l3.7 6.3h0.9v-7.7h-1v6.1l-3.4-6.1h-1.1v7.8zm-9.8 10c-2.8 0-5 2.2-5 5.3 0 3 2.2 5.3 5 5.3 2.8 0 5-2.2 5-5.3 0-3.1-2.2-5.3-5-5.3zm0 8.5c-1.5 0-2.8-1.4-2.8-3.2 0-1.9 1.3-3.2 2.8-3.2 1.5 0 2.8 1.2 2.8 3.2 0 1.8-1.3 3.2-2.8 3.2zm-10.9-8.5c-2.8 0-5 2.2-5 5.3 0 3 2.2 5.3 5 5.3 2.8 0 5-2.2 5-5.3 0-3.1-2.2-5.3-5-5.3zm0 8.5c-1.5 0-2.8-1.4-2.8-3.2 0-1.9 1.3-3.2 2.8-3.2 1.5 0 2.8 1.2 2.8 3.2 0 1.8-1.3 3.2-2.8 3.2zm-13-6.8v2.2h5c-0.1 1.1-0.5 2.1-1.2 2.9-1 1.1-2.4 1.6-3.9 1.6-3.2 0-5.5-2.6-5.5-6 0-3.4 2.5-6 5.5-6 1.6 0 2.9 0.7 3.9 1.6l1.5-1.6c-1.2-1.2-2.8-2.2-5.2-2.2-4.2 0-7.8 3.7-7.8 8.2 0 4.5 3.6 8.2 7.8 8.2 2.3 0 4-0.7 5.4-2.4 1.4-1.5 1.9-3.6 1.9-5.2 0-0.5 0-1-0.1-1.4zm53.2 1.7c-0.5-1.2-1.6-3.4-4.2-3.4-2.6 0-4.7 2.2-4.7 5.4 0 3 2.1 5.3 4.9 5.3 2.2 0 3.6-1.5 4.1-2.4l-1.6-1.2c-0.6 0.9-1.3 1.5-2.5 1.5-1.2 0-1.9-0.5-2.5-1.6l6.7-3zm-6.8 1.7c0-2 1.5-3.1 2.6-3.1 0.8 0 1.6 0.5 1.9 1.1zm-5.5 5.1h2.2v-15.5h-2.2zm-3.5-9c-0.6-0.6-1.5-1.2-2.7-1.2-2.5 0-4.8 2.4-4.8 5.3 0 3 2.2 5.2 4.8 5.2 1 0 2-0.4 2.6-1.2h0.1v0.7c0 2-1.1 3.1-2.7 3.1-1.3 0-2.2-1-2.5-1.9l-1.9 0.9c0.6 1.4 2 3.1 4.4 3.1 2.6 0 4.7-1.6 4.7-5.5v-9.4h-2.1zm-2.6 7.3c-1.5 0-2.8-1.4-2.8-3.2 0-1.9 1.3-3.2 2.8-3.2 1.5 0 2.7 1.4 2.7 3.2 0 1.8-1.2 3.2-2.7 3.2zm28.5-13.8h-5.3v15.5h2.2v-5.8h3c2.5 0 4.8-1.9 4.8-4.8 0.1-3-2.2-4.9-4.7-4.9zm0.1 7.5h-3.1v-5.3h3.2c1.6 0 2.6 1.5 2.6 2.6-0.2 1.3-1.1 2.7-2.7 2.7zm13.5-2.3c-1.6 0-3.3 0.7-3.9 2.4l2 0.9c0.5-0.9 1.2-1.1 2-1.1 1.2 0 2.2 0.7 2.3 2v0.1c-0.4-0.2-1.3-0.6-2.2-0.6-2.1 0-4.2 1.2-4.2 3.5 0 2.1 1.8 3.5 3.6 3.5 1.5 0 2.2-0.7 2.8-1.5h0.1v1.1h2.1v-6c-0.1-2.7-2.1-4.3-4.6-4.3zm-0.2 8.6c-0.7 0-1.8-0.4-1.8-1.4 0-1.2 1.3-1.6 2.3-1.6 0.9 0 1.4 0.2 2 0.5-0.2 1.5-1.4 2.5-2.5 2.5zm12.3-8.2l-2.5 6.7h-0.1l-2.6-6.7h-2.3l3.9 9.4-2.2 5.2h2.2l6-14.7h-2.4zm-19.7 9.9h2.2v-15.5h-2.2zm-93-8l-3.2-3-11.8 11zm0-8l-15-8 11.8 11zm4.3 6.1c0.9-0.8 0.9-2.5-0.1-3.3l-3-1.8-3.2 3.5 3.3 3.5zm-22.2 10.9l12.9-13-12.9-13c-0.7 0.3-1.1 1-1.1 1.8v22.4c0 0.8 0.4 1.5 1.1 1.8z"/></svg>